<mxfile host="app.diagrams.net" modified="2022-11-24T12:40:04.356Z" agent="5.0 (Windows NT 10.0; Win64; x64) AppleWebKit/537.36 (KHTML, like Gecko) Chrome/107.0.0.0 Safari/537.36" version="20.6.0" etag="TvaqJaD0GInidujKzKIV" type="github">
  <diagram id="AcaezFvhlNAec8YJfbTV" name="第 1 页">
    <mxGraphModel dx="494" dy="272" grid="1" gridSize="10" guides="1" tooltips="1" connect="1" arrows="1" fold="1" page="1" pageScale="1" pageWidth="827" pageHeight="1169" math="0" shadow="0">
      <root>
        <mxCell id="0" />
        <mxCell id="1" parent="0" />
        <mxCell id="6dTJF4mxCBnenjgw6hWk-3" value="" style="edgeStyle=orthogonalEdgeStyle;rounded=0;orthogonalLoop=1;jettySize=auto;html=1;" edge="1" parent="1" source="6dTJF4mxCBnenjgw6hWk-1" target="6dTJF4mxCBnenjgw6hWk-2">
          <mxGeometry relative="1" as="geometry" />
        </mxCell>
        <mxCell id="6dTJF4mxCBnenjgw6hWk-1" value="按1方式初始化82C55A" style="rounded=0;whiteSpace=wrap;html=1;" vertex="1" parent="1">
          <mxGeometry x="95" y="40" width="150" height="30" as="geometry" />
        </mxCell>
        <mxCell id="6dTJF4mxCBnenjgw6hWk-5" value="" style="edgeStyle=orthogonalEdgeStyle;rounded=0;orthogonalLoop=1;jettySize=auto;html=1;" edge="1" parent="1" source="6dTJF4mxCBnenjgw6hWk-2" target="6dTJF4mxCBnenjgw6hWk-4">
          <mxGeometry relative="1" as="geometry" />
        </mxCell>
        <mxCell id="6dTJF4mxCBnenjgw6hWk-2" value="置发送中断允许" style="whiteSpace=wrap;html=1;rounded=0;" vertex="1" parent="1">
          <mxGeometry x="115" y="120" width="110" height="30" as="geometry" />
        </mxCell>
        <mxCell id="6dTJF4mxCBnenjgw6hWk-9" value="" style="edgeStyle=orthogonalEdgeStyle;rounded=0;orthogonalLoop=1;jettySize=auto;html=1;" edge="1" parent="1" source="6dTJF4mxCBnenjgw6hWk-4" target="6dTJF4mxCBnenjgw6hWk-8">
          <mxGeometry relative="1" as="geometry" />
        </mxCell>
        <mxCell id="6dTJF4mxCBnenjgw6hWk-4" value="地址首地址-&amp;gt;SI" style="whiteSpace=wrap;html=1;rounded=0;flipV=1;flipH=1;" vertex="1" parent="1">
          <mxGeometry x="115" y="190" width="110" height="30" as="geometry" />
        </mxCell>
        <mxCell id="6dTJF4mxCBnenjgw6hWk-11" value="" style="edgeStyle=orthogonalEdgeStyle;rounded=0;orthogonalLoop=1;jettySize=auto;html=1;" edge="1" parent="1" source="6dTJF4mxCBnenjgw6hWk-8" target="6dTJF4mxCBnenjgw6hWk-10">
          <mxGeometry relative="1" as="geometry" />
        </mxCell>
        <mxCell id="6dTJF4mxCBnenjgw6hWk-8" value="字节数-&amp;gt;CX" style="whiteSpace=wrap;html=1;rounded=0;flipV=1;flipH=1;" vertex="1" parent="1">
          <mxGeometry x="125" y="260" width="90" height="30" as="geometry" />
        </mxCell>
        <mxCell id="6dTJF4mxCBnenjgw6hWk-13" value="" style="edgeStyle=orthogonalEdgeStyle;rounded=0;orthogonalLoop=1;jettySize=auto;html=1;" edge="1" parent="1" source="6dTJF4mxCBnenjgw6hWk-10" target="6dTJF4mxCBnenjgw6hWk-12">
          <mxGeometry relative="1" as="geometry" />
        </mxCell>
        <mxCell id="6dTJF4mxCBnenjgw6hWk-10" value="从内存存取1个数据" style="whiteSpace=wrap;html=1;rounded=0;" vertex="1" parent="1">
          <mxGeometry x="105" y="330" width="130" height="30" as="geometry" />
        </mxCell>
        <mxCell id="6dTJF4mxCBnenjgw6hWk-17" value="" style="edgeStyle=orthogonalEdgeStyle;rounded=0;orthogonalLoop=1;jettySize=auto;html=1;" edge="1" parent="1" source="6dTJF4mxCBnenjgw6hWk-12" target="6dTJF4mxCBnenjgw6hWk-16">
          <mxGeometry relative="1" as="geometry" />
        </mxCell>
        <mxCell id="6dTJF4mxCBnenjgw6hWk-12" value="从PA发送第一个数就" style="whiteSpace=wrap;html=1;rounded=0;" vertex="1" parent="1">
          <mxGeometry x="105" y="410" width="130" height="30" as="geometry" />
        </mxCell>
        <mxCell id="6dTJF4mxCBnenjgw6hWk-21" value="" style="edgeStyle=orthogonalEdgeStyle;rounded=0;orthogonalLoop=1;jettySize=auto;html=1;" edge="1" parent="1" source="6dTJF4mxCBnenjgw6hWk-16" target="6dTJF4mxCBnenjgw6hWk-20">
          <mxGeometry relative="1" as="geometry" />
        </mxCell>
        <mxCell id="6dTJF4mxCBnenjgw6hWk-16" value="SI+1" style="whiteSpace=wrap;html=1;rounded=0;" vertex="1" parent="1">
          <mxGeometry x="145" y="460" width="50" height="30" as="geometry" />
        </mxCell>
        <mxCell id="6dTJF4mxCBnenjgw6hWk-23" value="" style="edgeStyle=orthogonalEdgeStyle;rounded=0;orthogonalLoop=1;jettySize=auto;html=1;" edge="1" parent="1" source="6dTJF4mxCBnenjgw6hWk-20" target="6dTJF4mxCBnenjgw6hWk-26">
          <mxGeometry relative="1" as="geometry">
            <mxPoint x="170" y="620" as="targetPoint" />
          </mxGeometry>
        </mxCell>
        <mxCell id="6dTJF4mxCBnenjgw6hWk-20" value="CX-1" style="whiteSpace=wrap;html=1;rounded=0;" vertex="1" parent="1">
          <mxGeometry x="145" y="510" width="50" height="30" as="geometry" />
        </mxCell>
        <mxCell id="6dTJF4mxCBnenjgw6hWk-30" value="" style="edgeStyle=orthogonalEdgeStyle;rounded=0;orthogonalLoop=1;jettySize=auto;html=1;" edge="1" parent="1" source="6dTJF4mxCBnenjgw6hWk-24" target="6dTJF4mxCBnenjgw6hWk-28">
          <mxGeometry relative="1" as="geometry" />
        </mxCell>
        <mxCell id="6dTJF4mxCBnenjgw6hWk-24" value="从PA发下一个数据" style="whiteSpace=wrap;html=1;rounded=0;" vertex="1" parent="1">
          <mxGeometry x="105" y="700" width="130" height="30" as="geometry" />
        </mxCell>
        <mxCell id="6dTJF4mxCBnenjgw6hWk-27" value="" style="edgeStyle=orthogonalEdgeStyle;rounded=0;orthogonalLoop=1;jettySize=auto;html=1;" edge="1" parent="1" source="6dTJF4mxCBnenjgw6hWk-26" target="6dTJF4mxCBnenjgw6hWk-24">
          <mxGeometry relative="1" as="geometry" />
        </mxCell>
        <mxCell id="6dTJF4mxCBnenjgw6hWk-59" value="Y" style="edgeLabel;html=1;align=center;verticalAlign=middle;resizable=0;points=[];" vertex="1" connectable="0" parent="6dTJF4mxCBnenjgw6hWk-27">
          <mxGeometry x="-0.3143" y="-1" relative="1" as="geometry">
            <mxPoint as="offset" />
          </mxGeometry>
        </mxCell>
        <mxCell id="6dTJF4mxCBnenjgw6hWk-26" value="查INTRA=1" style="rhombus;whiteSpace=wrap;html=1;rounded=0;" vertex="1" parent="1">
          <mxGeometry x="125" y="610" width="90" height="30" as="geometry" />
        </mxCell>
        <mxCell id="6dTJF4mxCBnenjgw6hWk-32" value="" style="edgeStyle=orthogonalEdgeStyle;rounded=0;orthogonalLoop=1;jettySize=auto;html=1;" edge="1" parent="1" source="6dTJF4mxCBnenjgw6hWk-28" target="6dTJF4mxCBnenjgw6hWk-31">
          <mxGeometry relative="1" as="geometry" />
        </mxCell>
        <mxCell id="6dTJF4mxCBnenjgw6hWk-28" value="SI+1" style="whiteSpace=wrap;html=1;rounded=0;" vertex="1" parent="1">
          <mxGeometry x="105" y="760" width="130" height="30" as="geometry" />
        </mxCell>
        <mxCell id="6dTJF4mxCBnenjgw6hWk-34" value="" style="edgeStyle=orthogonalEdgeStyle;rounded=0;orthogonalLoop=1;jettySize=auto;html=1;" edge="1" parent="1" source="6dTJF4mxCBnenjgw6hWk-31" target="6dTJF4mxCBnenjgw6hWk-33">
          <mxGeometry relative="1" as="geometry" />
        </mxCell>
        <mxCell id="6dTJF4mxCBnenjgw6hWk-31" value="CX-1" style="whiteSpace=wrap;html=1;rounded=0;" vertex="1" parent="1">
          <mxGeometry x="105" y="800" width="130" height="30" as="geometry" />
        </mxCell>
        <mxCell id="6dTJF4mxCBnenjgw6hWk-36" value="" style="edgeStyle=orthogonalEdgeStyle;rounded=0;orthogonalLoop=1;jettySize=auto;html=1;" edge="1" parent="1" source="6dTJF4mxCBnenjgw6hWk-33" target="6dTJF4mxCBnenjgw6hWk-35">
          <mxGeometry relative="1" as="geometry" />
        </mxCell>
        <mxCell id="6dTJF4mxCBnenjgw6hWk-57" value="Y" style="edgeLabel;html=1;align=center;verticalAlign=middle;resizable=0;points=[];" vertex="1" connectable="0" parent="6dTJF4mxCBnenjgw6hWk-36">
          <mxGeometry x="-0.7079" y="1" relative="1" as="geometry">
            <mxPoint x="-1" y="11" as="offset" />
          </mxGeometry>
        </mxCell>
        <mxCell id="6dTJF4mxCBnenjgw6hWk-33" value="字节数发完" style="rhombus;whiteSpace=wrap;html=1;rounded=0;" vertex="1" parent="1">
          <mxGeometry x="130" y="830" width="80" height="80" as="geometry" />
        </mxCell>
        <mxCell id="6dTJF4mxCBnenjgw6hWk-35" value="返回DOS" style="whiteSpace=wrap;html=1;rounded=0;" vertex="1" parent="1">
          <mxGeometry x="110" y="970" width="120" height="60" as="geometry" />
        </mxCell>
        <mxCell id="6dTJF4mxCBnenjgw6hWk-50" value="" style="endArrow=classic;html=1;rounded=0;edgeStyle=orthogonalEdgeStyle;exitX=0;exitY=0.5;exitDx=0;exitDy=0;startArrow=none;startFill=0;" edge="1" parent="1" source="6dTJF4mxCBnenjgw6hWk-33">
          <mxGeometry width="50" height="50" relative="1" as="geometry">
            <mxPoint x="140" y="770" as="sourcePoint" />
            <mxPoint x="170" y="550" as="targetPoint" />
            <Array as="points">
              <mxPoint x="40" y="870" />
              <mxPoint x="40" y="550" />
            </Array>
          </mxGeometry>
        </mxCell>
        <mxCell id="6dTJF4mxCBnenjgw6hWk-56" value="N" style="edgeLabel;html=1;align=center;verticalAlign=middle;resizable=0;points=[];" vertex="1" connectable="0" parent="6dTJF4mxCBnenjgw6hWk-50">
          <mxGeometry x="-0.9041" relative="1" as="geometry">
            <mxPoint as="offset" />
          </mxGeometry>
        </mxCell>
        <mxCell id="6dTJF4mxCBnenjgw6hWk-55" value="" style="endArrow=classic;html=1;rounded=0;exitX=1;exitY=0.5;exitDx=0;exitDy=0;edgeStyle=orthogonalEdgeStyle;elbow=vertical;endFill=1;" edge="1" parent="1" source="6dTJF4mxCBnenjgw6hWk-26">
          <mxGeometry width="50" height="50" relative="1" as="geometry">
            <mxPoint x="170" y="620" as="sourcePoint" />
            <mxPoint x="170" y="570" as="targetPoint" />
            <Array as="points">
              <mxPoint x="260" y="625" />
              <mxPoint x="260" y="570" />
            </Array>
          </mxGeometry>
        </mxCell>
        <mxCell id="6dTJF4mxCBnenjgw6hWk-58" value="N" style="edgeLabel;html=1;align=center;verticalAlign=middle;resizable=0;points=[];" vertex="1" connectable="0" parent="6dTJF4mxCBnenjgw6hWk-55">
          <mxGeometry x="-0.8441" y="1" relative="1" as="geometry">
            <mxPoint as="offset" />
          </mxGeometry>
        </mxCell>
      </root>
    </mxGraphModel>
  </diagram>
</mxfile>
